<?xml version="1.0" standalone="no"?>
<!DOCTYPE svg PUBLIC "-//W3C//DTD SVG 20010904//EN"
 "http://www.w3.org/TR/2001/REC-SVG-20010904/DTD/svg10.dtd">
<svg version="1.0" xmlns="http://www.w3.org/2000/svg"
 width="400.000000pt" height="400.000000pt" viewBox="0 0 400.000000 400.000000"
 preserveAspectRatio="xMidYMid meet">

<g transform="translate(0.000000,400.000000) scale(0.100000,-0.100000)"
fill="#000000" stroke="none">
<path d="M0 2000 l0 -2000 2000 0 2000 0 0 2000 0 2000 -2000 0 -2000 0 0
-2000z m2460 1308 c88 -51 156 -95 152 -99 -19 -16 -1257 -722 -1266 -722 -6
0 -82 40 -169 90 l-158 91 518 297 c285 164 570 329 633 366 63 37 119 68 123
68 5 1 80 -40 167 -91z m170 -321 l0 -183 -617 -354 c-339 -195 -622 -359
-630 -363 -11 -7 -13 24 -11 179 l3 188 620 358 c341 196 623 357 628 357 4 1
7 -81 7 -182z m370 -595 c0 -111 -4 -192 -9 -190 -5 2 -79 43 -165 93 l-156
89 0 187 c0 102 3 188 6 191 3 4 77 -35 165 -85 l159 -92 0 -193z m-377 -13
c-13 -12 -447 -259 -456 -259 -4 0 -6 82 -5 183 l3 182 230 132 230 132 3
-181 c1 -100 -1 -185 -5 -189z m-1449 156 l156 -89 0 -183 c0 -101 -3 -183 -6
-183 -4 0 -78 41 -165 91 l-159 91 0 185 c0 106 4 183 9 181 5 -1 79 -43 165
-93z m956 -264 l0 -179 -376 -216 c-207 -119 -378 -216 -380 -216 -2 0 -4 82
-4 183 l0 183 368 212 c202 116 373 212 380 212 9 0 12 -42 12 -179z m500
-123 l0 -183 -366 -210 c-201 -115 -372 -211 -380 -213 -12 -3 -14 23 -12 178
l3 182 370 214 c204 117 373 213 378 214 4 0 7 -82 7 -182z m223 85 l147 -85
0 -185 c0 -101 -4 -183 -8 -181 -5 2 -79 44 -165 93 l-157 90 0 184 c0 170 1
183 18 176 9 -3 83 -45 165 -92z m-1682 -115 l159 -92 0 -183 c0 -101 -3 -183
-6 -183 -3 0 -77 41 -165 91 l-159 92 0 183 c0 101 3 184 6 184 3 0 77 -41
165 -92z m1452 -579 c-9 -8 -1243 -719 -1249 -719 -2 0 -4 83 -4 184 l0 183
628 361 627 360 3 -181 c1 -99 -1 -184 -5 -188z m217 280 l160 -92 0 -183 c0
-101 -2 -184 -5 -184 -3 0 -78 41 -165 92 l-160 92 0 183 c0 101 2 183 5 183
3 0 77 -41 165 -91z m-1002 -130 l-3 -182 -230 -132 -230 -133 -3 181 c-1 99
1 184 6 189 16 16 437 256 450 257 10 1 12 -38 10 -180z m-667 10 l159 -92 0
-193 c0 -115 -4 -194 -9 -194 -6 0 -79 40 -163 89 l-153 89 -3 196 c-1 108 0
196 4 196 3 0 77 -41 165 -91z m1631 -272 c78 -46 151 -88 161 -93 15 -8 -96
-76 -613 -373 l-632 -363 -154 89 c-84 48 -154 93 -154 98 -1 8 1222 722 1242
724 3 1 71 -36 150 -82z"/>
</g>
</svg>
